<?xml version="1.0" encoding="utf-8"?>
<!-- Generator: Adobe Illustrator 27.7.0, SVG Export Plug-In . SVG Version: 6.00 Build 0)  -->
<svg version="1.1" id="Capa_1" xmlns="http://www.w3.org/2000/svg" xmlns:xlink="http://www.w3.org/1999/xlink" x="0px" y="0px"
	 viewBox="0 0 971 181" style="enable-background:new 0 0 971 181;" xml:space="preserve">
<style type="text/css">
	.st0{fill:#FFFFFF;}
	.st1{fill:#CCCCCC;}
	.st2{fill:#FF4553;}
</style>
<g>
	<path class="st0" d="M28.3,21.2H55l20.7,81.1h0.4V21.2h19v135.4H73.2L47.7,57.8h-0.4v98.9h-19V21.2z"/>
	<path class="st0" d="M109.4,124.5V53.3c0-21.7,11.4-34,32.3-34s32.3,12.4,32.3,34v71.2c0,21.7-11.4,34-32.3,34
		S109.4,146.2,109.4,124.5z M152.7,125.9V52c0-9.7-4.3-13.3-11-13.3c-6.8,0-11,3.7-11,13.3v73.9c0,9.7,4.3,13.3,11,13.3
		C148.5,139.2,152.7,135.5,152.7,125.9z"/>
	<path class="st0" d="M204.4,21.2h28.8l22.1,135.4H234l-3.9-26.9v0.4h-24.2l-3.9,26.5h-19.7L204.4,21.2z M227.6,111.7l-9.5-66.9
		h-0.4l-9.3,66.9H227.6z"/>
	<path class="st0" d="M265.5,21.2H297c22.1,0,31.5,10.3,31.5,31.1v8.3c0,13.9-4.4,22.8-13.9,26.7v0.4c10.6,3.3,14.1,13.3,14.1,28.6
		v23.8c0,6.6,0.2,11.4,2.3,16.4h-21.7c-1.2-3.5-1.9-5.6-1.9-16.6v-24.8c0-12.6-3.7-16.6-13.3-16.6h-7.4v58h-21.3V21.2z M294.5,79.2
		c7.9,0,12.8-3.5,12.8-14.3V54.5c0-9.7-3.3-13.9-10.8-13.9h-9.7v38.7H294.5z"/>
	<path class="st0" d="M359.7,40.5h-22.2V21.2h65.8v19.3H381v116.1h-21.3V40.5z"/>
	<path class="st0" d="M413.5,21.2h58v19.3h-36.8v35.8H464v19.3h-29.2v41.6h36.8v19.3h-58V21.2z"/>
</g>
<g>
	<path class="st1" d="M873.3,37.1v120.3h-8.5V22h12.8l28.2,119.7L934.2,22H947v135.4h-7.9V37.5l-28.6,119.7h-8.9L873.3,37.1z"/>
	<path class="st1" d="M794.2,127.5l-6.8,30h-8.9l30.2-135.6h13l29.6,135.6h-8.1l-6.8-30H794.2z M815.5,32.1l-19.9,87.6H835
		L815.5,32.1z"/>
	<path class="st1" d="M765,22v135.4h-8.9V96.9H742c-15.5,0-25.3,5-25.3,23v21.3c0,7.4-0.6,12.2-2.9,16.2h-9.3
		c2.9-4.4,3.3-10.6,3.3-16.2v-21.1c0-14.7,5.6-24.6,19.5-27.7c-13.3-3.1-19.5-12.2-19.5-28.1V52.6c0-19.2,8.3-30.6,29-30.6H765z
		 M756.1,88.8V30.2h-19.2c-14.7,0-20.3,8.7-20.3,23.2v12.8c0,18.2,9.3,22.6,25.1,22.6H756.1z"/>
	<path class="st1" d="M634.8,157.5h-9.3l41.2-72.4L628,22h9.3l44.1,71.6V22h8.9v135.4h-8.9v-48.9l-9.3-14.7L634.8,157.5z"/>
	<path class="st1" d="M603.2,84.7V30.2h-44.5V22h53.4v135.4h-53.4v-8.1h44.5V92.9h-36.9v-8.1H603.2z"/>
	<path class="st1" d="M512.5,157.5V30.2h-27.7V22h64v8.1h-27.5v127.3H512.5z"/>
</g>
<rect x="9.3" y="84.2" transform="matrix(0.9658 -0.2592 0.2592 0.9658 -15.0594 68.3826)" class="st2" width="484.9" height="14.2"/>
</svg>
